<svg className="text-blue-400 fill-current" viewBox="0 0 58 58"  xmlns="http://www.w3.org/2000/svg">
<path  d="M43.5499 14.4501C42.2044 10.9458 40.0045 7.83334 37.15 5.39564C34.2955 2.95795 30.877 1.27233 27.2053 0.492019C23.5335 -0.288292 19.725 -0.138552 16.1259 0.927628C12.5268 1.99381 9.25118 3.94262 6.5969 6.5969C3.94262 9.25118 1.99381 12.5268 0.927628 16.1259C-0.138552 19.725 -0.288292 23.5335 0.492019 27.2053C1.27233 30.877 2.95795 34.2955 5.39564 37.15C7.83334 40.0045 10.9458 42.2044 14.4501 43.5499C15.7956 47.0542 17.9955 50.1667 20.85 52.6044C23.7045 55.0421 27.123 56.7277 30.7947 57.508C34.4664 58.2883 38.275 58.1385 41.8741 57.0724C45.4732 56.0062 48.7488 54.0574 51.4031 51.4031C54.0574 48.7488 56.0062 45.4732 57.0724 41.8741C58.1385 38.275 58.2883 34.4664 57.508 30.7947C56.7277 27.123 55.0421 23.7045 52.6044 20.85C50.1667 17.9955 47.0542 15.7956 43.5499 14.4501ZM38.8939 19.1061C39.1041 20.1994 39.2113 21.3101 39.214 22.4235C39.208 23.7367 39.0518 25.045 38.7484 26.3228L31.6481 19.2807C32.9259 18.9774 34.2342 18.8211 35.5474 18.8151C36.6608 18.8178 37.7715 18.925 38.8648 19.1352L38.8939 19.1061ZM36.1585 31.91C34.9985 33.561 33.561 34.9985 31.91 36.1585L21.8415 26.09C23.0015 24.439 24.439 23.0015 26.09 21.8415L36.1585 31.91ZM12.8787 36.1585C10.8627 34.764 9.17769 32.9435 7.94293 30.8258C6.70816 28.7081 5.95379 26.3449 5.73317 23.9035C5.51256 21.4621 5.83108 19.002 6.66621 16.6973C7.50134 14.3925 8.83269 12.2995 10.5661 10.5661C12.2995 8.83269 14.3925 7.50134 16.6973 6.66621C19.002 5.83108 21.4621 5.51256 23.9035 5.73317C26.3449 5.95379 28.7081 6.70816 30.8258 7.94293C32.9435 9.17769 34.764 10.8627 36.1585 12.8787H35.431C29.4522 12.9172 23.7326 15.3253 19.5267 19.5748C15.3208 23.8244 12.9719 29.5685 12.9951 35.5474C12.9951 35.7802 13.0242 36.0421 13.0242 36.2749L12.8787 36.1585ZM18.9897 38.7484C18.7795 37.6551 18.6723 36.5444 18.6696 35.431C18.6756 34.1178 18.8319 32.8095 19.1352 31.5317L26.2064 38.6029C24.9286 38.9062 23.6203 39.0625 22.3071 39.0685C21.2458 39.0953 20.1843 39.0271 19.1352 38.8648L18.9897 38.7484ZM35.5474 52.2798C32.8239 52.2747 30.1424 51.6071 27.7343 50.3347C25.3262 49.0622 23.2639 47.223 21.7251 44.9758H22.4526C28.4264 44.9681 34.1538 42.5936 38.3807 38.3722C42.6076 34.1507 44.9895 28.4264 45.0049 22.4526V21.7251C47.9609 23.7416 50.1926 26.6527 51.3723 30.0309C52.5521 33.4092 52.6178 37.0766 51.5597 40.495C50.5016 43.9133 48.3756 46.9024 45.4937 49.0234C42.6118 51.1445 39.1258 52.2858 35.5474 52.2798Z"/>
</svg>
